<?xml version="1.0" standalone="no"?>
<!DOCTYPE svg PUBLIC "-//W3C//DTD SVG 20010904//EN"
 "http://www.w3.org/TR/2001/REC-SVG-20010904/DTD/svg10.dtd">
<svg version="1.0" xmlns="http://www.w3.org/2000/svg"
 width="700.000000pt" height="700.000000pt" viewBox="0 0 700.000000 700.000000"
 preserveAspectRatio="xMidYMid meet">
<metadata>
Created by potrace 1.14, written by Peter Selinger 2001-2017
</metadata>
<g transform="translate(0.000000,700.000000) scale(0.100000,-0.100000)"
fill="#000000" stroke="none">
<path d="M2595 4585 c-316 -59 -567 -284 -642 -575 -21 -83 -20 -256 2 -365
63 -306 255 -634 588 -1003 226 -251 893 -886 943 -898 33 -8 41 -2 264 201
265 242 673 652 802 807 255 308 403 563 473 819 35 126 45 331 21 434 -62
263 -272 473 -561 561 -81 25 -105 28 -245 28 -181 0 -252 -14 -375 -74 -44
-21 -110 -63 -146 -94 -62 -51 -157 -161 -196 -227 -10 -16 -20 -29 -23 -29
-4 0 -28 31 -53 68 -99 145 -249 268 -382 312 -145 48 -327 62 -470 35z"/>
</g>
</svg>
