<svg width="140" height="48" viewBox="0 0 140 48" fill="none" xmlns="http://www.w3.org/2000/svg">
<path d="M13.6904 17.2829H14.1088H14.5916C14.6774 17.3041 14.7631 17.3149 14.8489 17.3149H15.1063H15.3637H15.6211H15.8303H16.0718C16.8224 17.2939 17.5197 17.1598 18.1632 16.9127C18.807 16.6663 19.161 16.1779 19.2254 15.4486V15.0302C19.2254 14.1937 18.9033 13.6304 18.2599 13.3407C17.6164 13.0513 16.9191 12.8855 16.1682 12.8421H15.927H15.6854H13.6904V17.2829ZM13.6904 9.20579H15.0097C15.3745 9.20579 15.7606 9.21119 16.1682 9.22199C16.5758 9.23299 16.9942 9.24919 17.4231 9.27019C17.9381 9.31349 18.4475 9.37189 18.9518 9.44699C19.4555 9.52269 19.9116 9.62419 20.3192 9.75289C21.5421 10.2033 22.5558 10.9327 23.3603 11.941C24.1647 12.9498 24.567 14.1829 24.567 15.6416V16.1243C24.4592 18.055 23.7143 19.3745 22.3304 20.0824C20.9468 20.7902 19.4292 21.2199 17.7771 21.3696C17.1765 21.4339 16.5758 21.4719 15.9751 21.4821C15.3745 21.4934 14.8061 21.4983 14.2695 21.4983H8.47754V1.00009H21.0597V5.47319H13.6907V9.20579H13.6904Z" fill="#D95D77"/>
<path d="M41.9583 17.6687L39.8666 10.8786C39.7589 10.5566 39.6574 10.2187 39.5607 9.86505C39.4644 9.51095 39.3839 9.16285 39.3195 8.81905C39.2761 8.69035 39.2441 8.56755 39.2231 8.44915C39.2016 8.33145 39.1798 8.21895 39.1585 8.11125C39.1372 8.21895 39.1103 8.33145 39.0783 8.44915C39.046 8.56755 39.0188 8.69035 38.9978 8.81905C38.9762 8.86265 38.9655 8.89955 38.9655 8.93185C38.9655 8.96385 38.9544 9.00154 38.9334 9.04435C38.8691 9.36615 38.7993 9.67765 38.7242 9.97755C38.6488 10.2783 38.5683 10.5787 38.483 10.8786L36.3913 17.6687H41.9583ZM35.6512 4.82925H42.6341L49.7456 25.3271H44.1463L43.1168 21.6268H35.2005L34.1386 25.3271H28.604L35.6512 4.82925Z" fill="#D95D77"/>
<path d="M61.3368 7.62889L64.1045 1.00009H70.733L60.5966 21.4983H54.2895L57.6361 15.1915L51.168 1.00009H57.7971L60.3392 7.62889L60.854 9.65619L61.3368 7.62889Z" fill="#D95D77"/>
<path d="M74.5823 5.17734H80.1493V13.0933H87.6149V5.17734H93.1818V25.6755H87.6149V17.3411H80.1493V25.6755H74.5823V5.17734Z" fill="#D95D77"/>
<path d="M101.416 5.85919H96.8462V1.00009H111.584V5.85919H107.015V21.4983H101.416V5.85919Z" fill="#D95D77"/>
<path d="M115.249 5.17734H120.816V18.2099L128.281 5.17734H133.848V25.6755H128.281V13.5117L120.816 25.6755H115.249V5.17734Z" fill="#D95D77"/>
<path d="M4.9146 45.855H4.1116V44.4235H1V40.2426H1.8033V43.7088H3.7113V40.2426H4.5144V43.7088H4.9146V45.855ZM13.3718 43.1439C13.3718 42.9412 13.3058 42.7967 13.1742 42.7108C13.0424 42.6246 12.8219 42.5815 12.5129 42.5815H12.1986V43.7088H12.5129C12.827 43.7088 13.0501 43.6683 13.1791 43.5847C13.3083 43.5036 13.3718 43.3568 13.3718 43.1439ZM13.0402 41.4284C13.0402 41.2382 12.9945 41.1115 12.9007 41.0482C12.8071 40.9848 12.6447 40.9544 12.4092 40.9544H12.1988V41.8666H12.4092C12.6271 41.8666 12.7867 41.8312 12.8882 41.7626C12.9894 41.6943 13.0402 41.5829 13.0402 41.4284ZM14.1751 43.1439C14.1751 43.5872 14.0462 43.9093 13.7851 44.1145C13.524 44.3197 13.1008 44.4235 12.5132 44.4235H11.3958V40.2426H12.4168C12.8857 40.2426 13.2428 40.3365 13.4835 40.5264C13.7242 40.7166 13.8432 40.9927 13.8432 41.3601C13.8432 41.5503 13.8027 41.7175 13.7191 41.8618C13.6354 42.0064 13.5189 42.1101 13.3721 42.171C13.623 42.2394 13.8205 42.361 13.9626 42.5359C14.1043 42.7108 14.1751 42.9134 14.1751 43.1439ZM23.6613 41.9301C23.6259 41.5831 23.5068 41.3195 23.3064 41.1373C23.1063 40.9573 22.8327 40.866 22.4906 40.866C22.1612 40.866 21.8902 40.9598 21.6773 41.1472C21.4619 41.3348 21.3326 41.5959 21.2895 41.9301H23.6613ZM24.4547 42.4851H21.2723C21.3051 42.9134 21.4267 43.2377 21.6371 43.4631C21.8474 43.6887 22.1414 43.8001 22.5164 43.8001C22.8027 43.8001 23.0382 43.7443 23.2256 43.6329C23.4107 43.524 23.5626 43.3517 23.6791 43.1187L24.3507 43.4758C24.1582 43.8432 23.9099 44.1168 23.6083 44.2968C23.3067 44.4768 22.9393 44.568 22.5087 44.568C21.8828 44.568 21.3888 44.3628 21.0214 43.9521C20.654 43.5416 20.4715 42.9945 20.4715 42.3077C20.4715 41.6693 20.6639 41.1421 21.0492 40.7242C21.4344 40.3061 21.9157 40.0984 22.4909 40.0984C23.0788 40.0984 23.5527 40.2883 23.915 40.671C24.2747 41.0536 24.4547 41.5602 24.4547 42.1886V42.4851ZM33.2537 40.9547H32.2503V44.4235H31.4472V40.9547H30.4412V40.2426H33.2537V40.9547ZM42.8893 42.315C42.8893 41.8918 42.7549 41.5449 42.4862 41.2736C42.2152 41.0026 41.8781 40.8657 41.4753 40.8657C41.0649 40.8657 40.7253 41.0001 40.4594 41.271C40.1932 41.5423 40.0589 41.8918 40.0589 42.315C40.0589 42.7459 40.1932 43.1005 40.4642 43.3792C40.7329 43.6607 41.07 43.7998 41.4753 43.7998C41.8832 43.7998 42.2228 43.6607 42.4887 43.3792C42.7549 43.1005 42.8893 42.7459 42.8893 42.315ZM43.6926 42.315C43.6926 42.9435 43.4772 43.4756 43.0491 43.9112C42.6183 44.3498 42.0913 44.5677 41.4654 44.5677C40.8421 44.5677 40.3177 44.3498 39.8945 43.9138C39.4712 43.4807 39.2586 42.946 39.2586 42.315C39.2586 41.6841 39.469 41.1545 39.8919 40.7313C40.3126 40.3084 40.837 40.0981 41.4654 40.0981C42.0964 40.0981 42.6259 40.311 43.0542 40.7364C43.4797 41.1648 43.6926 41.6892 43.6926 42.315ZM53.6246 44.4232H52.8165V42.9562C52.7124 43.0067 52.573 43.0498 52.4009 43.083C52.226 43.1184 52.0588 43.136 51.8966 43.136C51.2985 43.136 50.8628 42.9789 50.5867 42.6623C50.3104 42.3454 50.1712 41.8488 50.1712 41.1724V40.2424H50.9742V41.1724C50.9742 41.5931 51.0451 41.8969 51.1846 42.0846C51.324 42.2745 51.5621 42.3683 51.8966 42.3683C52.0715 42.3683 52.2311 42.353 52.3805 42.3227C52.5302 42.2924 52.6745 42.2442 52.8165 42.1807V40.2424H53.6246V44.4232ZM64.0454 44.4232H63.242V42.5279H61.3088V44.4232H60.5057V40.2424H61.3088V41.8133H63.242V40.2424H64.0454V44.4232ZM72.9666 43.1107C72.9666 42.9004 72.8982 42.7485 72.7588 42.6597C72.6193 42.571 72.3735 42.5279 72.0189 42.5279H71.7049V43.7086H72.0189C72.3662 43.7086 72.6094 43.6607 72.7537 43.5668C72.8957 43.473 72.9666 43.3211 72.9666 43.1107ZM73.775 43.1107C73.775 43.5515 73.6304 43.8809 73.3416 44.0963C73.0502 44.3143 72.6094 44.4232 72.0189 44.4232H70.9015V40.2424H71.7049V41.8133H72.0291C72.6219 41.8133 73.0604 41.9199 73.3467 42.1328C73.633 42.3479 73.775 42.6722 73.775 43.1107ZM75.3102 44.4232H74.5021V40.2424H75.3102V44.4232ZM85.7312 44.4232H84.9282V41.8388L82.1916 44.6208V40.2424H82.9947V42.7938L85.7312 40.0422V44.4232ZM85.3208 38.7499C85.2423 39.1099 85.0878 39.3809 84.857 39.566C84.6266 39.7508 84.325 39.8447 83.9551 39.8447C83.5826 39.8447 83.2736 39.7483 83.0278 39.5533C82.7821 39.3608 82.6299 39.0921 82.5769 38.7499L83.0962 38.5702C83.129 38.8109 83.2254 39.0084 83.3825 39.1604C83.5395 39.3151 83.7297 39.3911 83.9551 39.3911C84.1756 39.3911 84.3655 39.31 84.5251 39.1505C84.685 38.9909 84.7734 38.7956 84.7938 38.5702L85.3208 38.7499ZM98.42 42.3148C98.42 41.8916 98.2856 41.5446 98.0172 41.2733C97.7462 41.0023 97.4091 40.8654 97.006 40.8654C96.5956 40.8654 96.2563 40.9998 95.9901 41.2708C95.7239 41.542 95.5899 41.8916 95.5899 42.3148C95.5899 42.7456 95.7239 43.1002 95.9952 43.3789C96.2637 43.6604 96.6007 43.7996 97.006 43.7996C97.4142 43.7996 97.7535 43.6604 98.0197 43.3789C98.2856 43.1002 98.42 42.7456 98.42 42.3148ZM99.2236 42.3148C99.2236 42.9432 99.0082 43.4753 98.5798 43.911C98.1493 44.3495 97.6223 44.5675 96.9964 44.5675C96.3427 44.5675 95.8104 44.3444 95.4025 43.8985C94.9946 43.4549 94.7894 42.8672 94.7894 42.1348C94.7894 41.1747 94.9617 40.417 95.3064 39.8597C95.6508 39.3021 96.2007 38.8789 96.9533 38.5875C97.3763 38.4228 97.683 38.2201 97.878 37.982C98.0707 37.7465 98.1668 37.4346 98.1668 37.0471H98.8917C98.8917 37.5767 98.7496 38.0225 98.4659 38.3848C98.1821 38.7496 97.7337 39.0538 97.1231 39.2996C96.7682 39.4441 96.4819 39.6187 96.2665 39.8191C96.0488 40.0193 95.8841 40.2625 95.7699 40.5437C95.9119 40.4068 96.0944 40.2979 96.3198 40.2168C96.5454 40.1383 96.7708 40.0978 96.9964 40.0978C97.6271 40.0978 98.1569 40.3107 98.5849 40.7362C99.0107 41.1645 99.2236 41.6889 99.2236 42.3148ZM109.429 40.2421L106.759 46.7439H105.872L106.938 44.2429L105.175 40.2421H106.052L107.349 43.3233L108.545 40.2421H109.429ZM118.084 40.9541H117.081V44.4229H116.277V40.9541H115.272V40.2421H118.084V40.9541ZM128.011 44.4229H127.208V41.8385L124.471 44.6205V40.2421H125.275V42.7935L128.011 40.0419V44.4229ZM138.407 44.4229H137.441L135.718 42.2136V44.4229H134.91V40.2421H135.718V42.1019L137.314 40.2421H138.262L136.557 42.1172L138.407 44.4229Z" fill="black"/>
<path d="M27.127 33.7712H113.732" stroke="black" stroke-width="1.0001" stroke-miterlimit="22.9256"/>
</svg>
